<svg xmlns="http://www.w3.org/2000/svg" viewBox="0 0 32 32">
  <rect width="32" height="32" rx="7" fill="#0d9488"/>
  <path d="M25.68,21.04L25.61,18.17L26.48,17.15L27.46,17.87L28,17.01L26.88,16.81L25.03,14.59L24.47,14.26L22.2,11.51L21.35,9.98L20.89,8.38L18.34,9.07L16.19,8.39L16.15,7.84L12.81,6.3L11.11,7.33L7.33,5.96L5.96,5.3L5.09,7.38L5.64,9.55L4,11.66L4.72,13.7L5.83,15.07L8.3,15.76L9.65,17.49L10.78,16.29L10.91,15.16L9.25,14.15L8.63,12.97L9.76,13.03L11.69,14.39L13.2,16.05L13.01,17.07L13.79,17.73L16.06,18.21L19.43,20.22L20.52,21.54L20.79,22.89L19.97,23.95L19.97,24.73L21.04,25.76L23.05,26.26L23.1,25.04L24.01,24.82L24.88,26.7L26.43,25.31L26.44,24.34L25.79,23.48L26.16,22.79L27.28,22.04L25.68,21.04Z" fill="#fff"/>
</svg>
